<svg width="216" height="47" viewBox="0 0 216 47" fill="none" xmlns="http://www.w3.org/2000/svg">
<path d="M5.46484 9.6582V45.0684H0.132812V2.00195L6.69531 1.04492L17.2227 28.3887L29.5273 1.86523L34.7227 2.27539L38.0039 46.1621H33.3555L30.8945 10.2051L18.4531 35.6348L15.4453 35.2246L5.46484 9.6582ZM53.8633 21.0059C51.3568 21.0059 49.3743 21.7806 47.916 23.3301C46.5033 24.8796 45.7969 27.3633 45.7969 30.7812C45.7969 32.1029 45.9792 33.4245 46.3438 34.7461C46.7083 36.0221 47.2324 37.1842 47.916 38.2324C48.5996 39.2806 49.4199 40.1465 50.377 40.8301C51.334 41.4681 52.4049 41.7871 53.5898 41.7871C54.8203 41.7871 55.9368 41.4909 56.9395 40.8984C57.9421 40.306 58.7852 39.554 59.4688 38.6426C60.1523 37.6855 60.6764 36.6374 61.041 35.498C61.4512 34.3132 61.6562 33.1738 61.6562 32.0801C61.6562 28.0697 60.9271 25.2214 59.4688 23.5352C58.056 21.849 56.1875 21.0059 53.8633 21.0059ZM53.4531 16.3574C55.7318 16.3574 57.6686 16.7676 59.2637 17.5879C60.8587 18.4082 62.1576 19.5475 63.1602 21.0059C64.1628 22.4186 64.8919 24.082 65.3477 25.9961C65.8034 27.8646 66.0312 29.8926 66.0312 32.0801C65.9401 34.541 65.5299 36.6829 64.8008 38.5059C64.1172 40.2832 63.2057 41.7643 62.0664 42.9492C60.9271 44.1341 59.6283 45 58.1699 45.5469C56.7572 46.1393 55.276 46.4355 53.7266 46.4355C51.6758 46.4355 49.8757 46.0254 48.3262 45.2051C46.8223 44.3848 45.5462 43.291 44.498 41.9238C43.4954 40.5111 42.7207 38.916 42.1738 37.1387C41.6725 35.3158 41.4219 33.4017 41.4219 31.3965C41.4219 29.2546 41.6953 27.2721 42.2422 25.4492C42.8346 23.5807 43.6322 21.9857 44.6348 20.6641C45.6829 19.2969 46.9362 18.2487 48.3945 17.5195C49.8984 16.7448 51.5846 16.3574 53.4531 16.3574ZM75.0547 43.5645V22.8516H68.082L68.4922 17.8613H76.0117V3.91602H80.6602V18.1348H91.8711V23.0566H80.1816V40.8301L90.5039 38.916L91.1875 43.5645L77.5156 46.4355L75.0547 43.5645ZM106.637 21.0059C104.13 21.0059 102.148 21.7806 100.689 23.3301C99.2767 24.8796 98.5703 27.3633 98.5703 30.7812C98.5703 32.1029 98.7526 33.4245 99.1172 34.7461C99.4818 36.0221 100.006 37.1842 100.689 38.2324C101.373 39.2806 102.193 40.1465 103.15 40.8301C104.107 41.4681 105.178 41.7871 106.363 41.7871C107.594 41.7871 108.71 41.4909 109.713 40.8984C110.715 40.306 111.559 39.554 112.242 38.6426C112.926 37.6855 113.45 36.6374 113.814 35.498C114.225 34.3132 114.43 33.1738 114.43 32.0801C114.43 28.0697 113.701 25.2214 112.242 23.5352C110.829 21.849 108.961 21.0059 106.637 21.0059ZM106.227 16.3574C108.505 16.3574 110.442 16.7676 112.037 17.5879C113.632 18.4082 114.931 19.5475 115.934 21.0059C116.936 22.4186 117.665 24.082 118.121 25.9961C118.577 27.8646 118.805 29.8926 118.805 32.0801C118.714 34.541 118.303 36.6829 117.574 38.5059C116.891 40.2832 115.979 41.7643 114.84 42.9492C113.701 44.1341 112.402 45 110.943 45.5469C109.531 46.1393 108.049 46.4355 106.5 46.4355C104.449 46.4355 102.649 46.0254 101.1 45.2051C99.5957 44.3848 98.3197 43.291 97.2715 41.9238C96.2689 40.5111 95.4941 38.916 94.9473 37.1387C94.446 35.3158 94.1953 33.4017 94.1953 31.3965C94.1953 29.2546 94.4688 27.2721 95.0156 25.4492C95.6081 23.5807 96.4056 21.9857 97.4082 20.6641C98.4564 19.2969 99.7096 18.2487 101.168 17.5195C102.672 16.7448 104.358 16.3574 106.227 16.3574Z" fill="#F9F871"/>
<path d="M150.25 7.19727L147.242 9.11133C146.513 8.06315 145.419 7.12891 143.961 6.30859C142.503 5.48828 140.953 5.07812 139.312 5.07812C137.398 5.07812 135.621 5.55664 133.98 6.51367C132.385 7.42513 130.973 8.74674 129.742 10.4785C128.557 12.2103 127.623 14.2839 126.939 16.6992C126.256 19.1146 125.914 21.7806 125.914 24.6973C125.96 27.2493 126.415 29.5508 127.281 31.6016C128.193 33.6523 129.355 35.4069 130.768 36.8652C132.18 38.278 133.753 39.3717 135.484 40.1465C137.216 40.9212 138.948 41.3086 140.68 41.3086C142.958 41.3086 145.009 40.8073 146.832 39.8047C148.655 38.7565 150.296 37.0931 151.754 34.8145L154.488 38.7793C152.438 41.2402 150.227 43.0404 147.857 44.1797C145.488 45.319 142.981 45.8887 140.338 45.8887C137.923 45.8887 135.576 45.3418 133.297 44.248C131.018 43.1543 128.99 41.6276 127.213 39.668C125.436 37.6628 124 35.2702 122.906 32.4902C121.858 29.6647 121.334 26.543 121.334 23.125C121.334 20.5273 121.676 17.9069 122.359 15.2637C123.043 12.6204 124.091 10.2279 125.504 8.08594C126.962 5.94401 128.808 4.21224 131.041 2.89062C133.32 1.52344 136.031 0.839844 139.176 0.839844C141.546 0.839844 143.756 1.31836 145.807 2.27539C147.857 3.23242 149.339 4.87305 150.25 7.19727ZM182.926 24.834L187.301 43.4277L183.199 44.9316L180.738 33.3105C180.419 34.5866 179.918 35.9082 179.234 37.2754C178.596 38.6426 177.776 39.8958 176.773 41.0352C175.816 42.1289 174.654 43.0404 173.287 43.7695C171.965 44.4531 170.462 44.7949 168.775 44.7949C165.768 44.7949 163.466 43.8379 161.871 41.9238C160.322 39.9642 159.547 37.2754 159.547 33.8574C159.547 31.8978 159.843 29.8698 160.436 27.7734C161.028 25.6315 161.917 23.6947 163.102 21.9629C164.286 20.2311 165.768 18.7956 167.545 17.6562C169.368 16.5169 171.487 15.9473 173.902 15.9473C175.315 15.9473 176.546 16.2663 177.594 16.9043C178.688 17.4967 179.599 18.2487 180.328 19.1602C181.057 20.0716 181.627 21.0514 182.037 22.0996C182.447 23.1022 182.743 24.0137 182.926 24.834ZM174.586 20.8691C174.267 20.778 173.948 20.7096 173.629 20.6641C173.355 20.6185 173.059 20.5957 172.74 20.5957C171.327 20.5957 170.051 21.0286 168.912 21.8945C167.818 22.7148 166.884 23.763 166.109 25.0391C165.38 26.3151 164.811 27.7051 164.4 29.209C164.036 30.7129 163.854 32.1029 163.854 33.3789C163.854 35.3841 164.286 37.002 165.152 38.2324C166.018 39.4629 167.385 40.0781 169.254 40.0781C170.53 40.0781 171.715 39.668 172.809 38.8477C173.902 37.9818 174.837 36.9108 175.611 35.6348C176.386 34.3587 176.979 32.9688 177.389 31.4648C177.844 29.9154 178.072 28.4798 178.072 27.1582C178.072 25.6999 177.776 24.4238 177.184 23.3301C176.637 22.1908 175.771 21.3704 174.586 20.8691ZM195.777 46.5723L193.453 16.4941L197.691 15.9473L198.648 29.209L213.277 19.3652L215.191 23.1934L199.332 34.6777V46.1621L195.777 46.5723Z" fill="#4BBC8E"/>
</svg>
