<svg width="81" height="16" viewBox="0 0 81 16" fill="none" xmlns="http://www.w3.org/2000/svg">
<path d="M12.8 15H9.38L3.66 6.34V15H0.24V0.96H3.66L9.38 9.66V0.96H12.8V15ZM14.5991 9.4C14.5991 8.25333 14.8124 7.24667 15.2391 6.38C15.6791 5.51333 16.2724 4.84667 17.0191 4.38C17.7657 3.91333 18.5991 3.68 19.5191 3.68C20.3057 3.68 20.9924 3.84 21.5791 4.16C22.1791 4.48 22.6391 4.9 22.9591 5.42V3.84H26.3791V15H22.9591V13.42C22.6257 13.94 22.1591 14.36 21.5591 14.68C20.9724 15 20.2857 15.16 19.4991 15.16C18.5924 15.16 17.7657 14.9267 17.0191 14.46C16.2724 13.98 15.6791 13.3067 15.2391 12.44C14.8124 11.56 14.5991 10.5467 14.5991 9.4ZM22.9591 9.42C22.9591 8.56667 22.7191 7.89333 22.2391 7.4C21.7724 6.90667 21.1991 6.66 20.5191 6.66C19.8391 6.66 19.2591 6.90667 18.7791 7.4C18.3124 7.88 18.0791 8.54667 18.0791 9.4C18.0791 10.2533 18.3124 10.9333 18.7791 11.44C19.2591 11.9333 19.8391 12.18 20.5191 12.18C21.1991 12.18 21.7724 11.9333 22.2391 11.44C22.7191 10.9467 22.9591 10.2733 22.9591 9.42ZM28.1733 9.4C28.1733 8.25333 28.3866 7.24667 28.8133 6.38C29.2533 5.51333 29.8466 4.84667 30.5933 4.38C31.3399 3.91333 32.1733 3.68 33.0933 3.68C33.8799 3.68 34.5666 3.84 35.1533 4.16C35.7533 4.48 36.2133 4.9 36.5333 5.42V3.84H39.9533V15H36.5333V13.42C36.1999 13.94 35.7333 14.36 35.1333 14.68C34.5466 15 33.8599 15.16 33.0733 15.16C32.1666 15.16 31.3399 14.9267 30.5933 14.46C29.8466 13.98 29.2533 13.3067 28.8133 12.44C28.3866 11.56 28.1733 10.5467 28.1733 9.4ZM36.5333 9.42C36.5333 8.56667 36.2933 7.89333 35.8133 7.4C35.3466 6.90667 34.7733 6.66 34.0933 6.66C33.4133 6.66 32.8333 6.90667 32.3533 7.4C31.8866 7.88 31.6533 8.54667 31.6533 9.4C31.6533 10.2533 31.8866 10.9333 32.3533 11.44C32.8333 11.9333 33.4133 12.18 34.0933 12.18C34.7733 12.18 35.3466 11.9333 35.8133 11.44C36.2933 10.9467 36.5333 10.2733 36.5333 9.42ZM56.6675 3.72C58.0542 3.72 59.1542 4.14 59.9675 4.98C60.7942 5.82 61.2075 6.98667 61.2075 8.48V15H57.8075V8.94C57.8075 8.22 57.6142 7.66667 57.2275 7.28C56.8542 6.88 56.3342 6.68 55.6675 6.68C55.0008 6.68 54.4742 6.88 54.0875 7.28C53.7142 7.66667 53.5275 8.22 53.5275 8.94V15H50.1275V8.94C50.1275 8.22 49.9342 7.66667 49.5475 7.28C49.1742 6.88 48.6542 6.68 47.9875 6.68C47.3208 6.68 46.7942 6.88 46.4075 7.28C46.0342 7.66667 45.8475 8.22 45.8475 8.94V15H42.4275V3.84H45.8475V5.24C46.1942 4.77333 46.6475 4.40667 47.2075 4.14C47.7675 3.86 48.4008 3.72 49.1075 3.72C49.9475 3.72 50.6942 3.9 51.3475 4.26C52.0142 4.62 52.5342 5.13333 52.9075 5.8C53.2942 5.18667 53.8208 4.68667 54.4875 4.3C55.1542 3.91333 55.8808 3.72 56.6675 3.72ZM62.9194 9.4C62.9194 8.25333 63.1327 7.24667 63.5594 6.38C63.9994 5.51333 64.5927 4.84667 65.3394 4.38C66.086 3.91333 66.9194 3.68 67.8394 3.68C68.626 3.68 69.3127 3.84 69.8994 4.16C70.4994 4.48 70.9594 4.9 71.2794 5.42V3.84H74.6994V15H71.2794V13.42C70.946 13.94 70.4794 14.36 69.8794 14.68C69.2927 15 68.606 15.16 67.8194 15.16C66.9127 15.16 66.086 14.9267 65.3394 14.46C64.5927 13.98 63.9994 13.3067 63.5594 12.44C63.1327 11.56 62.9194 10.5467 62.9194 9.4ZM71.2794 9.42C71.2794 8.56667 71.0394 7.89333 70.5594 7.4C70.0927 6.90667 69.5194 6.66 68.8394 6.66C68.1594 6.66 67.5794 6.90667 67.0994 7.4C66.6327 7.88 66.3994 8.54667 66.3994 9.4C66.3994 10.2533 66.6327 10.9333 67.0994 11.44C67.5794 11.9333 68.1594 12.18 68.8394 12.18C69.5194 12.18 70.0927 11.9333 70.5594 11.44C71.0394 10.9467 71.2794 10.2733 71.2794 9.42Z" fill="black"/>
<path d="M78.7736 15.16C78.1736 15.16 77.6803 14.9867 77.2936 14.64C76.9203 14.28 76.7336 13.84 76.7336 13.32C76.7336 12.7867 76.9203 12.34 77.2936 11.98C77.6803 11.62 78.1736 11.44 78.7736 11.44C79.3603 11.44 79.8403 11.62 80.2136 11.98C80.6003 12.34 80.7936 12.7867 80.7936 13.32C80.7936 13.84 80.6003 14.28 80.2136 14.64C79.8403 14.9867 79.3603 15.16 78.7736 15.16Z" fill="#FB8416"/>
</svg>
